<svg xmlns="http://www.w3.org/2000/svg" viewBox="0 0 16 16" width="32" height="32">
  <path fill="#e6edf3" d="M8,15.5 C4,15.5 1.5,12 1.5,9 C1.5,7 2,5.5 3.5,5 L1,0.5 L5.5,4 C6.3,3.5 7.1,3.2 8,3.2 C8.9,3.2 9.7,3.5 10.5,4 L15,0.5 L12.5,5 C14,5.5 14.5,7 14.5,9 C14.5,12 12,15.5 8,15.5Z"/>
  <rect x="2.5" y="7" width="11" height="3.5" rx="1.75" fill="#0d1117"/>
  <circle cx="5.5" cy="8.75" r="1.3" fill="#e6edf3"/>
  <circle cx="10.5" cy="8.75" r="1.3" fill="#e6edf3"/>
  <path fill="#0d1117" d="M7.5,11.8 L8,12.6 L8.5,11.8Z"/>
</svg>
